<svg height='100px' width='100px'  fill="#000000" xmlns="http://www.w3.org/2000/svg" viewBox="0 0 64 64" x="0px" y="0px"><g><path d="M33,16.816A2.993,2.993,0,0,0,32,11a1,1,0,1,1,1-1h2a3,3,0,0,0-2-2.816V6H31V7.184A2.993,2.993,0,0,0,32,13a1,1,0,1,1-1,1H29a3,3,0,0,0,2,2.816V18h2Z"></path><path d="M16.16,53.764l1.491,5.964A3,3,0,0,0,20.562,62h3a3,3,0,0,0,2.846-2.051L27.721,56h8.558L37.6,59.949A3,3,0,0,0,40.441,62h3a3,3,0,0,0,2.911-2.272l1.491-5.964A14.991,14.991,0,0,0,55,41a23.024,23.024,0,0,0-2.289-10H53a1,1,0,0,0,1-1A11.013,11.013,0,0,0,43,19a1,1,0,0,0-1,1v.289A22.807,22.807,0,0,0,39.015,19.1a10,10,0,1,0-14.028,0A22.9,22.9,0,0,0,22,20.293V20a1,1,0,0,0-1-1A11.013,11.013,0,0,0,10,30a1,1,0,0,0,1,1h.289A23.024,23.024,0,0,0,9,41,14.991,14.991,0,0,0,16.16,53.764Zm8.347,5.552a1,1,0,0,1-.948.684h-3a1,1,0,0,1-.971-.758l-1.073-4.294A14.894,14.894,0,0,0,24,56h1.612Zm19.9-.074a1,1,0,0,1-.971.758h-3a1,1,0,0,1-.948-.684L38.388,56H40a14.894,14.894,0,0,0,5.482-1.052ZM44,21.055A9.02,9.02,0,0,1,51.945,29H44ZM24,12a8,8,0,1,1,12.667,6.482,22.878,22.878,0,0,0-9.338,0A7.989,7.989,0,0,1,24,12Zm-4,9.055V29H12.055A9.02,9.02,0,0,1,20,21.055ZM21,31a1,1,0,0,0,1-1V22.542a20.941,20.941,0,0,1,20,0V30a1,1,0,0,0,1,1h7.458A20.993,20.993,0,0,1,53,41,13.015,13.015,0,0,1,40,54H24A13.015,13.015,0,0,1,11,41a20.99,20.99,0,0,1,2.542-10Z"></path><path d="M32,52c4.411,0,8-2.691,8-6s-3.589-6-8-6-8,2.691-8,6S27.589,52,32,52Zm0-10c3.252,0,6,1.832,6,4s-2.748,4-6,4-6-1.832-6-4S28.748,42,32,42Z"></path><path d="M22,39a1.355,1.355,0,0,0,.2-.02.636.636,0,0,0,.18-.06.757.757,0,0,0,.18-.09l.15-.12a1.014,1.014,0,0,0,0-1.42l-.15-.12a.757.757,0,0,0-.18-.09.636.636,0,0,0-.18-.06,1.009,1.009,0,0,0-.91.27A1,1,0,0,0,22,39Z"></path><path d="M42,39a1,1,0,0,0,.38-.08,1.155,1.155,0,0,0,.33-.21A1.052,1.052,0,0,0,43,38a1,1,0,0,0-.08-.38.9.9,0,0,0-.54-.54,1,1,0,0,0-1.09.21,1.155,1.155,0,0,0-.21.33A1,1,0,0,0,41,38a.99.99,0,0,0,1,1Z"></path><path d="M30,47a.99.99,0,1,0-.71-.29A1.052,1.052,0,0,0,30,47Z"></path><path d="M34,47a.99.99,0,1,0-.71-.29A1.052,1.052,0,0,0,34,47Z"></path></g></svg>
